<?xml version="1.0" encoding="UTF-8"?>
<svg id="Calque_1" xmlns="http://www.w3.org/2000/svg" version="1.1" viewBox="0 0 93 55.54">
  <!-- Generator: Adobe Illustrator 30.1.0, SVG Export Plug-In . SVG Version: 2.1.1 Build 136)  -->
  <defs>
    <style>
      .st0 {
        fill: #1e3446;
      }

      .st1 {
        fill: #e23f2e;
      }
    </style>
  </defs>
  <path class="st0" d="M7.64,42.05h0c-4.22,0-7.64-3.42-7.64-7.64V15.3c0-2.11,1.71-3.82,3.82-3.82s3.82,1.71,3.82,3.82v26.75Z"/>
  <path class="st0" d="M82.8,42.05h0c-4.22,0-7.64-3.42-7.64-7.64V15.3c0-2.11,1.71-3.82,3.82-3.82s3.82,1.71,3.82,3.82v26.75Z"/>
  <path class="st0" d="M35.67,42.05h0c-2.11,0-3.82-1.71-3.82-3.82V11.48c4.22,0,7.64,3.42,7.64,7.64v19.11c0,2.11-1.71,3.82-3.82,3.82"/>
  <path class="st0" d="M67.51,42.05h0c-2.11,0-3.82-1.71-3.82-3.82V3.82C63.69,1.71,65.4,0,67.51,0s3.82,1.71,3.82,3.82v34.41c0,2.11-1.71,3.82-3.82,3.82"/>
  <path class="st0" d="M47.13,42.05h0c-2.11,0-3.82-1.71-3.82-3.82V15.3c0-2.11,1.71-3.82,3.82-3.82s3.82,1.71,3.82,3.82v22.93c0,2.11-1.71,3.82-3.82,3.82"/>
  <path class="st1" d="M57.32,42.05h0c-2.1,0-3.82-1.72-3.82-3.82s1.72-3.82,3.82-3.82,3.82,1.72,3.82,3.82-1.72,3.82-3.82,3.82"/>
  <path class="st0" d="M91.41,41.12c.5.53,1.05.92,1.58.92V15.45c0-2.09-1.61-3.92-3.7-3.98-2.16-.07-3.94,1.67-3.94,3.82v26.75c.66,0,1.29-.41,1.85-.98,1.17-1.2,3.06-1.16,4.21.06"/>
  <path class="st0" d="M47.13,7.64h0c-2.1,0-3.82-1.72-3.82-3.82s1.72-3.82,3.82-3.82,3.82,1.72,3.82,3.82-1.72,3.82-3.82,3.82"/>
  <path class="st0" d="M16.25,41.14c.5.53,1.05.92,1.58.92V15.47c0-2.09-1.61-3.92-3.7-3.98-2.16-.07-3.94,1.67-3.94,3.82v26.75c.66,0,1.29-.41,1.85-.98,1.17-1.2,3.06-1.16,4.21.06"/>
  <path class="st0" d="M23.24,12.4c-.5-.53-1.05-.92-1.58-.92v26.59c0,2.09,1.61,3.92,3.7,3.98,2.16.07,3.94-1.67,3.94-3.82V11.48c-.66,0-1.29.41-1.85.98-1.17,1.2-3.06,1.15-4.21-.07"/>
  <path class="st0" d="M1.07,53.74c-.31-.16-.55-.38-.72-.67-.17-.29-.26-.62-.26-1v-3.75s0-.05.03-.07c.02-.02.04-.03.07-.03h.75s.05.01.07.03c.02.02.03.04.03.07v3.76c0,.32.1.58.3.78.2.2.47.3.8.3s.6-.1.8-.3c.2-.2.3-.46.3-.78v-3.76s0-.05.03-.07c.02-.02.04-.03.07-.03h.75s.05.01.07.03c.02.02.03.04.03.07v3.75c0,.38-.08.71-.25,1-.17.29-.41.51-.72.67-.31.16-.67.24-1.07.24s-.75-.08-1.06-.24"/>
  <path class="st0" d="M8.25,50.09c.26.26.39.61.39,1.06v2.67s0,.05-.03.07c-.02.02-.04.03-.07.03h-.75s-.05,0-.07-.03c-.02-.02-.03-.04-.03-.07v-2.47c0-.25-.07-.45-.21-.61-.14-.15-.33-.23-.56-.23s-.42.08-.56.23-.22.35-.22.6v2.48s0,.05-.03.07c-.02.02-.04.03-.07.03h-.75s-.05,0-.07-.03c-.02-.02-.03-.04-.03-.07v-3.96s.01-.05.03-.07c.02-.02.04-.03.07-.03h.75s.05,0,.07.03c.02.02.03.04.03.07v.26s0,.03.02.03c.01,0,.02,0,.02-.02.22-.29.56-.44,1.01-.44s.79.13,1.05.39"/>
  <path class="st0" d="M9.76,49.03c-.11-.11-.16-.25-.16-.41s.05-.31.16-.41c.11-.11.25-.16.41-.16s.31.05.41.16c.11.11.16.25.16.41s-.05.3-.16.41c-.11.11-.25.16-.41.16s-.31-.05-.41-.16M9.72,53.88s-.03-.04-.03-.07v-3.96s0-.05.03-.07c.02-.02.04-.03.07-.03h.75s.05,0,.07.03c.02.02.03.04.03.07v3.96s0,.05-.03.07c-.02.02-.04.03-.07.03h-.75s-.05,0-.07-.03"/>
  <path class="st0" d="M12.69,53.83l-1.31-3.96s0-.02,0-.04c0-.05.03-.07.09-.07h.83c.06,0,.1.03.11.08l.79,2.71s.01.03.02.03c.01,0,.02,0,.03-.03l.79-2.71c.02-.05.05-.08.11-.08l.83.02s.06,0,.07.03c.02.02.02.05,0,.09l-1.3,3.95c-.02.05-.05.08-.11.08h-.85c-.05,0-.09-.03-.11-.08"/>
  <path class="st0" d="M19.15,51.83v.25c0,.06-.04.1-.11.1h-2.54s-.04.01-.04.04c.02.18.04.3.07.37.13.39.45.59.95.59.37,0,.66-.15.88-.45.02-.03.05-.05.08-.05.02,0,.04,0,.06.02l.5.41s.06.08.02.13c-.17.24-.39.42-.67.55s-.59.2-.93.2c-.42,0-.78-.1-1.08-.28s-.51-.46-.65-.8c-.12-.29-.19-.7-.19-1.22,0-.31.03-.57.1-.76.11-.38.31-.68.61-.9.3-.22.66-.33,1.08-.33,1.07,0,1.67.56,1.8,1.67.02.14.03.29.03.46M16.82,50.66c-.13.1-.23.24-.28.42-.03.09-.05.21-.06.36-.01.03,0,.04.03.04h1.65s.04-.01.04-.04c-.01-.14-.03-.24-.05-.31-.05-.19-.15-.35-.29-.45s-.32-.16-.54-.16c-.2,0-.37.05-.5.15"/>
  <path class="st0" d="M22.42,49.82s.06.06.05.12l-.14.73c0,.07-.04.08-.11.06-.08-.03-.18-.04-.28-.04-.07,0-.12,0-.16,0-.23.01-.42.09-.57.24-.15.15-.23.34-.23.58v2.3s0,.05-.03.07c-.02.02-.04.03-.07.03h-.75s-.05,0-.07-.03c-.02-.02-.03-.04-.03-.07v-3.96s0-.05.03-.07c.02-.02.04-.03.07-.03h.75s.05.01.07.03c.02.02.03.04.03.07v.37s0,.03.01.04c0,0,.02,0,.03-.02.23-.35.54-.53.95-.53.17,0,.33.04.45.11"/>
  <path class="st0" d="M23.77,53.81c-.26-.1-.46-.24-.6-.41-.14-.18-.21-.37-.21-.59v-.07s0-.05.03-.07c.02-.02.04-.03.07-.03h.71s.05,0,.07.03c.02.02.03.04.03.07v.02c0,.14.07.25.22.35.15.1.34.15.57.15.22,0,.39-.04.53-.13.14-.09.2-.2.2-.34,0-.12-.06-.22-.17-.28-.11-.06-.29-.13-.54-.2l-.31-.1c-.28-.08-.51-.17-.7-.26-.19-.09-.35-.22-.48-.38-.13-.16-.19-.37-.19-.61,0-.38.15-.68.45-.91.3-.22.69-.34,1.18-.34.33,0,.62.05.87.16.25.11.44.25.58.44.14.19.2.4.2.64,0,.03,0,.05-.03.07-.02.02-.04.03-.07.03h-.69s-.05,0-.07-.03c-.02-.02-.03-.04-.03-.07,0-.14-.07-.26-.21-.35-.14-.1-.33-.14-.56-.14-.21,0-.38.04-.52.12-.13.08-.2.19-.2.33,0,.13.06.23.19.3.13.07.34.14.64.22l.18.05c.29.09.53.17.72.26.2.09.36.22.5.37.14.16.2.37.2.62,0,.38-.15.69-.46.9-.3.22-.71.33-1.21.33-.34,0-.64-.05-.9-.15"/>
  <path class="st0" d="M27.28,49.03c-.11-.11-.16-.25-.16-.41s.05-.31.16-.41c.11-.11.25-.16.41-.16s.31.05.41.16c.11.11.16.25.16.41s-.05.3-.16.41c-.11.11-.25.16-.41.16s-.31-.05-.41-.16M27.24,53.88s-.03-.04-.03-.07v-3.96s0-.05.03-.07c.02-.02.04-.03.07-.03h.75s.05,0,.07.03c.02.02.03.04.03.07v3.96s0,.05-.03.07c-.02.02-.04.03-.07.03h-.75s-.05,0-.07-.03"/>
  <path class="st0" d="M31.35,50.5s-.04.03-.07.03h-.83s-.04.01-.04.04v1.96c0,.21.04.35.13.45.09.09.23.14.43.14h.24s.05,0,.07.03c.02.02.03.04.03.07v.61c0,.06-.03.1-.1.11h-.42c-.43,0-.75-.07-.96-.21-.21-.15-.32-.42-.32-.83v-2.31s-.01-.04-.04-.04h-.46s-.05,0-.07-.03-.03-.04-.03-.07v-.57s0-.05.03-.07c.02-.02.04-.03.07-.03h.46s.04-.01.04-.04v-.95s0-.05.03-.07c.02-.02.04-.03.07-.03h.71s.05,0,.07.03c.02.02.03.04.03.07v.95s.01.04.04.04h.83s.05,0,.07.03c.02.02.03.04.03.07v.57s0,.05-.03.07"/>
  <path class="st0" d="M35.61,51.82v.25c0,.07-.04.1-.11.1h-2.54s-.04.01-.04.04c.02.18.04.3.07.37.13.39.45.59.95.59.37,0,.66-.15.88-.45.02-.03.05-.05.08-.05.02,0,.04,0,.06.02l.5.41s.06.08.02.13c-.17.24-.39.42-.67.55-.28.13-.59.19-.93.19-.42,0-.78-.1-1.08-.28-.3-.19-.51-.45-.64-.8-.12-.29-.19-.7-.19-1.22,0-.31.03-.57.1-.76.11-.38.31-.68.61-.9.3-.22.66-.33,1.08-.33,1.07,0,1.67.56,1.8,1.67.02.13.03.29.03.45M33.28,50.66c-.13.1-.23.24-.28.42-.03.09-.05.21-.06.36-.01.03,0,.04.03.04h1.65s.04-.01.04-.04c-.01-.14-.03-.24-.05-.31-.05-.19-.15-.35-.29-.46-.14-.11-.32-.16-.54-.16-.2,0-.37.05-.5.15M33.31,49.21s0-.05,0-.08l.45-.84s.06-.06.12-.06h.64s.06.01.08.04c.01.02.01.05-.01.08l-.56.83s-.06.06-.11.06h-.54s-.06,0-.07-.03"/>
  <path class="st0" d="M40.69,48.25s.04-.03.07-.03h.75s.05,0,.07.03c.02.02.03.04.03.07v5.49s0,.05-.03.07c-.02.02-.04.03-.07.03h-.75s-.05-.01-.07-.03c-.02-.02-.03-.04-.03-.07v-.24s0-.03-.02-.03c-.01,0-.02,0-.03.02-.24.28-.55.42-.93.42s-.71-.1-.97-.3c-.27-.2-.46-.48-.58-.84-.1-.3-.15-.64-.15-1.01s.05-.71.14-.99c.12-.36.31-.64.58-.84.27-.2.6-.3,1-.3.37,0,.68.13.92.41.01.01.02.02.03.01.01,0,.02-.01.02-.03v-1.76s0-.05.03-.07M40.66,51.83c0-.42-.07-.75-.2-.97-.15-.24-.35-.36-.62-.36-.28,0-.49.11-.65.34-.16.24-.24.57-.24.99,0,.38.06.69.19.93.15.26.38.39.69.39.28,0,.49-.13.64-.39.12-.22.19-.54.19-.94"/>
  <path class="st0" d="M45.17,49.79s.04-.03.07-.03h.74s.05,0,.07.03c.02.02.03.04.03.07v3.96s0,.05-.03.07c-.02.02-.04.03-.07.03h-.74s-.05-.01-.07-.03-.03-.04-.03-.07v-.26s0-.03-.02-.03c-.01,0-.02,0-.03.02-.22.29-.55.43-1,.43-.41,0-.76-.12-1.04-.36-.28-.24-.42-.58-.42-1.01v-2.74s0-.05.03-.07c.02-.02.04-.03.07-.03h.75s.05,0,.07.03c.02.02.03.04.03.07v2.47c0,.25.07.46.2.61.13.15.32.23.56.23s.44-.08.58-.23c.15-.15.22-.35.22-.61v-2.47s0-.05.03-.07"/>
  <path class="st0" d="M48.83,53.88s-.03-.04-.03-.07v-5.49s0-.05.03-.07c.02-.02.04-.03.07-.03h.75s.05,0,.07.03c.02.02.03.04.03.07v4.74s.01.04.04.04h2.72s.05,0,.07.03c.02.02.03.04.03.07v.62s-.01.05-.03.07c-.02.02-.04.03-.07.03h-3.61s-.05,0-.07-.03"/>
  <path class="st0" d="M55.84,49.79s.04-.03.07-.03h.74s.05,0,.07.03c.02.02.03.04.03.07v3.96s0,.05-.03.07c-.02.02-.04.03-.07.03h-.74s-.05-.01-.07-.03-.03-.04-.03-.07v-.26s0-.03-.02-.03c-.01,0-.02,0-.03.02-.22.29-.55.43-1,.43-.41,0-.76-.12-1.04-.36-.28-.24-.42-.58-.42-1.01v-2.74s0-.05.03-.07c.02-.02.04-.03.07-.03h.75s.05,0,.07.03c.02.02.03.04.03.07v2.47c0,.25.07.46.2.61.13.15.32.23.56.23s.44-.08.58-.23c.15-.15.22-.35.22-.61v-2.47s0-.05.03-.07"/>
  <path class="st0" d="M57.46,53.88s-.01-.05.01-.08l1.32-1.93s0-.03,0-.05l-1.32-1.93s-.02-.04-.02-.06c0-.04.03-.07.08-.07h.8s.09.02.11.07l.85,1.25s.02.02.03.02c.01,0,.02,0,.03-.02l.84-1.25s.06-.07.11-.07h.85s.06.01.08.04c.01.02.01.05-.01.08l-1.32,1.93s0,.03,0,.05l1.32,1.93s.02.04.02.06c0,.04-.03.07-.08.07h-.8s-.09-.02-.11-.07l-.85-1.25s-.01-.02-.02-.02c-.01,0-.02,0-.03.02l-.85,1.25s-.06.07-.11.07h-.85s-.07-.01-.08-.04"/>
  <path class="st0" d="M65.31,51.83v.25c0,.06-.04.1-.11.1h-2.54s-.04.01-.04.04c.02.18.04.3.07.37.13.39.45.59.95.59.37,0,.66-.15.88-.45.02-.03.05-.05.08-.05.02,0,.04,0,.06.02l.5.41s.06.08.02.13c-.17.24-.39.42-.67.55s-.59.2-.93.2c-.42,0-.78-.1-1.08-.28s-.51-.46-.65-.8c-.12-.29-.19-.7-.19-1.22,0-.31.03-.57.1-.76.11-.38.31-.68.61-.9.3-.22.66-.33,1.08-.33,1.07,0,1.67.56,1.8,1.67.02.14.03.29.03.46M62.97,50.66c-.13.1-.23.24-.28.42-.03.09-.05.21-.06.36-.01.03,0,.04.03.04h1.65s.04-.01.04-.04c-.01-.14-.03-.24-.05-.31-.05-.19-.15-.35-.29-.45s-.32-.16-.54-.16c-.2,0-.37.05-.5.15"/>
  <path class="st0" d="M71.62,50.07c.24.25.35.6.35,1.05v2.69s0,.05-.03.07c-.02.02-.04.03-.07.03h-.74s-.05,0-.07-.03c-.02-.02-.03-.04-.03-.07v-2.49c0-.25-.07-.45-.2-.59-.13-.15-.31-.22-.53-.22s-.4.07-.54.22c-.14.15-.21.34-.21.59v2.5s0,.05-.03.07c-.02.02-.04.03-.07.03h-.74s-.05,0-.07-.03c-.02-.02-.03-.04-.03-.07v-2.49c0-.25-.07-.45-.2-.59-.13-.15-.31-.22-.54-.22-.21,0-.37.06-.51.18-.13.12-.21.28-.23.49v2.64s0,.05-.03.07c-.02.02-.04.03-.07.03h-.75s-.05,0-.07-.03c-.02-.02-.03-.04-.03-.07v-3.96s0-.05.03-.07c.02-.02.04-.03.07-.03h.75s.05,0,.07.03c.02.02.03.04.03.07v.27s0,.03.02.03c.01,0,.02,0,.03-.02.12-.15.27-.26.44-.34.18-.07.37-.11.59-.11.27,0,.5.05.7.16.2.11.35.26.46.47.02.02.03.02.06,0,.12-.22.29-.38.5-.48.21-.1.45-.15.71-.15.42,0,.74.13.98.38"/>
  <path class="st0" d="M76.63,51.83c0,.38-.05.72-.15,1.02-.12.36-.31.64-.58.84-.26.2-.59.3-.97.3s-.69-.14-.93-.43c-.01-.02-.02-.02-.03-.02-.01,0-.02.02-.02.03v.25s-.01.05-.03.07c-.02.02-.04.03-.07.03h-.75s-.05,0-.07-.03c-.02-.02-.03-.04-.03-.07v-5.49s0-.05.03-.07c.02-.02.04-.03.07-.03h.75s.05.01.07.03c.02.02.03.04.03.07v1.76s0,.03.02.03c.01,0,.02,0,.03,0,.23-.28.54-.41.93-.41s.73.1,1,.3c.26.2.46.48.58.84.09.3.14.63.14.99M75.66,51.84c0-.42-.08-.75-.24-.99-.15-.23-.36-.34-.65-.34-.27,0-.47.12-.61.36-.13.22-.2.54-.2.97s.06.73.19.94c.14.26.35.39.63.39.15,0,.29-.03.41-.1.12-.07.21-.16.28-.29.13-.23.19-.54.19-.93"/>
  <path class="st0" d="M78.17,53.65c-.31-.22-.52-.52-.64-.9-.09-.29-.14-.6-.14-.93,0-.35.04-.65.13-.93.12-.38.34-.67.65-.89.31-.21.68-.32,1.11-.32.41,0,.77.11,1.07.32.3.21.51.5.64.88.1.26.15.57.15.93s-.05.65-.14.93c-.12.38-.34.69-.64.9-.3.22-.66.33-1.08.33s-.79-.11-1.1-.32M79.79,52.99c.14-.11.25-.27.31-.48.05-.18.08-.41.08-.68,0-.29-.03-.52-.08-.68-.06-.21-.16-.37-.31-.48-.15-.11-.32-.17-.54-.17-.2,0-.37.06-.52.17-.15.11-.25.27-.32.48-.05.19-.08.42-.08.68s.03.49.08.68c.06.21.16.37.31.48.15.11.33.17.54.17.2,0,.37-.06.52-.17"/>
  <path class="st0" d="M84.52,49.79s.04-.03.07-.03h.74s.05,0,.07.03c.02.02.03.04.03.07v3.96s0,.05-.03.07c-.02.02-.04.03-.07.03h-.74s-.05-.01-.07-.03-.03-.04-.03-.07v-.26s0-.03-.02-.03c-.01,0-.02,0-.03.02-.22.29-.55.43-1,.43-.41,0-.76-.12-1.04-.36-.28-.24-.42-.58-.42-1.01v-2.74s0-.05.03-.07c.02-.02.04-.03.07-.03h.75s.05,0,.07.03c.02.02.03.04.03.07v2.47c0,.25.07.46.2.61.13.15.32.23.56.23s.44-.08.58-.23c.15-.15.22-.35.22-.61v-2.47s0-.05.03-.07"/>
  <path class="st0" d="M88.87,49.82s.06.06.05.12l-.14.73c0,.07-.04.08-.11.06-.08-.03-.18-.04-.28-.04-.07,0-.12,0-.16,0-.23.01-.42.09-.57.24-.15.15-.23.34-.23.58v2.3s0,.05-.03.07c-.02.02-.04.03-.07.03h-.75s-.05,0-.07-.03c-.02-.02-.03-.04-.03-.07v-3.96s0-.05.03-.07c.02-.02.04-.03.07-.03h.75s.05.01.07.03c.02.02.03.04.03.07v.37s0,.03.01.04c0,0,.02,0,.03-.02.23-.35.54-.53.95-.53.17,0,.33.04.45.11"/>
  <path class="st0" d="M92.09,49.79s.04-.03.07-.03h.75s.05,0,.07.03c.02.02.03.04.03.07v3.78c0,.68-.19,1.16-.58,1.45-.39.29-.9.43-1.52.43-.17,0-.33,0-.5-.02-.06,0-.09-.04-.09-.11l.02-.67c0-.06.04-.09.11-.09.16.02.3.03.42.03.41,0,.7-.08.9-.24.19-.16.29-.43.29-.81v-.06s0-.03-.02-.03c-.01,0-.02,0-.03.01-.22.24-.53.36-.94.36-.35,0-.67-.09-.97-.27-.29-.18-.5-.45-.61-.82-.07-.25-.11-.58-.11-.98,0-.45.04-.79.13-1.03.11-.33.3-.6.56-.79.26-.2.58-.3.93-.3.43,0,.76.12,1,.37.01.02.02.02.03.02,0,0,.02-.02.02-.03v-.2s0-.05.03-.07M92.05,52.27c0-.1.01-.25.01-.46s0-.35-.01-.44c0-.09-.03-.18-.05-.26-.04-.18-.13-.32-.26-.43-.13-.11-.3-.16-.51-.16s-.36.05-.5.16c-.14.11-.23.25-.29.43-.07.15-.1.39-.1.71s.03.57.08.71c.05.17.15.32.3.43.14.11.32.17.52.17.21,0,.38-.05.51-.16.13-.11.22-.25.26-.42.02-.08.04-.17.04-.26"/>
</svg>